<svg width="18" height="19" viewBox="0 0 18 19" fill="none" xmlns="http://www.w3.org/2000/svg">
<path d="M7.35309 11.3303L5.10799 9.08154L4.0957 10.0902L7.35309 13.3476L16.5938 4.10688L15.5851 3.09821L7.35309 11.3303Z" fill="#EC407A"/>
<path d="M12.3133 9.61299C12.3603 9.9203 12.3965 10.2059 12.3965 10.5204C12.3965 13.2319 10.1912 15.4336 7.48329 15.4336C4.77181 15.4336 2.57009 13.2283 2.57009 10.5204C2.57009 7.80896 4.77543 5.60723 7.48329 5.60723C8.73419 5.60723 9.7067 6.02661 10.6792 6.78221L11.6915 5.76992C10.4262 4.74679 9.1391 4.1828 7.48329 4.1828C3.98367 4.17919 1.13843 7.02443 1.13843 10.5204C1.13843 14.0164 3.98367 16.8617 7.47967 16.8617C10.9757 16.8617 13.8209 14.0164 13.8209 10.5204C13.8209 9.75399 13.6835 9.16108 13.4883 8.43802L12.3133 9.61299Z" fill="#EC407A"/>
</svg>
