<svg width="30" height="30" viewBox="0 0 30 30" fill="none" xmlns="http://www.w3.org/2000/svg">
<circle cx="15" cy="15" r="15" fill="white" fill-opacity="0.21"/>
<circle cx="15" cy="15" r="14.5" stroke="white" stroke-opacity="0.33"/>
<path d="M18.024 23V17.195H20.0978L20.408 14.9383H18.024V13.4983C18.024 12.845 18.2178 12.3992 19.2169 12.3992H20.4916V10.3808C19.8745 10.3195 19.2543 10.2897 18.6338 10.2917C16.7964 10.2917 15.5387 11.3433 15.5387 13.275V14.9383H13.4604V17.195H15.5387V23H7.88889C7.65314 23 7.42705 22.9122 7.26035 22.7559C7.09365 22.5996 7 22.3877 7 22.1667V8.83333C7 8.61232 7.09365 8.40036 7.26035 8.24408C7.42705 8.0878 7.65314 8 7.88889 8H22.1111C22.3469 8 22.573 8.0878 22.7397 8.24408C22.9064 8.40036 23 8.61232 23 8.83333V22.1667C23 22.3877 22.9064 22.5996 22.7397 22.7559C22.573 22.9122 22.3469 23 22.1111 23H18.024Z" fill="white"/>
</svg>
