<svg width="41" height="22" viewBox="0 0 41 22" fill="none" xmlns="http://www.w3.org/2000/svg">
<path d="M40 0V21.5" stroke="#D8D8D8"/>
<g clip-path="url(#clip0_1_338)">
<path d="M4.07545 14.2947C6.04809 16.6527 8.42273 18.5093 11.133 19.823C12.165 20.3121 13.545 20.8923 15.0825 20.9917C15.1778 20.9959 15.269 21 15.3643 21C16.3962 21 17.225 20.6436 17.9006 19.9101C17.9047 19.9059 17.913 19.8976 17.9171 19.8893C18.1575 19.5993 18.431 19.3382 18.717 19.0605C18.9117 18.874 19.1107 18.6792 19.3013 18.4803C20.184 17.5603 20.184 16.3916 19.293 15.5006L16.8023 13.0099C16.3796 12.5707 15.874 12.3386 15.3436 12.3386C14.8131 12.3386 14.3034 12.5707 13.8682 13.0058L12.3846 14.4894C12.2478 14.4107 12.1069 14.3402 11.9743 14.2739C11.8086 14.191 11.6552 14.1123 11.5185 14.0253C10.1674 13.1674 8.94076 12.0485 7.76794 10.6104C7.17532 9.86034 6.77748 9.23042 6.49981 8.58807C6.88937 8.23581 7.25406 7.86697 7.60632 7.50642C7.73065 7.37795 7.85912 7.24948 7.98759 7.12101C8.43516 6.67344 8.67553 6.15541 8.67553 5.62909C8.67553 5.10278 8.43931 4.58475 7.98759 4.13717L6.75261 2.9022C6.60756 2.75715 6.4708 2.61625 6.3299 2.4712C6.05638 2.18939 5.77043 1.8993 5.48862 1.63821C5.06177 1.21964 4.56032 1 4.02986 1C3.50354 1 2.99795 1.21964 2.55452 1.64235L1.00458 3.19229C0.440966 3.75591 0.121861 4.4397 0.0555538 5.23125C-0.0231863 6.22172 0.159159 7.27435 0.6316 8.54662C1.35684 10.5151 2.45091 12.3427 4.07545 14.2947ZM1.06674 5.31828C1.11647 4.76709 1.32783 4.30709 1.72567 3.90924L3.26732 2.36759C3.50769 2.13552 3.77292 2.01533 4.02986 2.01533C4.28266 2.01533 4.5396 2.13552 4.77582 2.37588C5.05348 2.63282 5.31457 2.9022 5.59637 3.18815C5.73728 3.3332 5.88233 3.47824 6.02737 3.62743L7.26235 4.86241C7.51929 5.11935 7.65191 5.38044 7.65191 5.63738C7.65191 5.89432 7.51929 6.15541 7.26235 6.41235C7.13388 6.54082 7.00541 6.67344 6.87694 6.80191C6.49153 7.19146 6.13098 7.5603 5.73313 7.91256C5.72484 7.92085 5.7207 7.92499 5.71241 7.93328C5.36844 8.27725 5.42232 8.60464 5.5052 8.85329C5.50935 8.86573 5.51349 8.87402 5.51763 8.88645C5.83674 9.65313 6.28017 10.3825 6.97225 11.2528C8.21552 12.7862 9.52509 13.9755 10.9673 14.8914C11.1455 15.0075 11.3361 15.0986 11.5143 15.1898C11.6801 15.2727 11.8334 15.3514 11.9702 15.4385C11.9868 15.4467 11.9992 15.455 12.0158 15.4633C12.1525 15.5338 12.2851 15.5669 12.4178 15.5669C12.7493 15.5669 12.9648 15.3556 13.0352 15.2851L14.5852 13.7352C14.8255 13.4948 15.0866 13.3663 15.3436 13.3663C15.6585 13.3663 15.9155 13.5611 16.0771 13.7352L18.5761 16.23C19.0734 16.7273 19.0692 17.2661 18.5636 17.7924C18.3896 17.9789 18.2072 18.1571 18.0125 18.3436C17.7224 18.6254 17.4198 18.9155 17.1463 19.2429C16.6697 19.7567 16.102 19.9971 15.3684 19.9971C15.298 19.9971 15.2234 19.993 15.1529 19.9888C13.7936 19.9018 12.5297 19.3713 11.5806 18.9196C9.00292 17.6722 6.74018 15.9026 4.86285 13.6564C3.31705 11.7957 2.27685 10.0634 1.58891 8.2068C1.16206 7.06714 1.00044 6.15126 1.06674 5.31828Z" fill="#FA5C98"/>
</g>
<defs>
<clipPath id="clip0_1_338">
<rect width="20" height="20" fill="white" transform="translate(0 1)"/>
</clipPath>
</defs>
</svg>
