<svg width="41" height="22" viewBox="0 0 41 22" fill="none" xmlns="http://www.w3.org/2000/svg">
<g clip-path="url(#clip0_1_330)">
<path d="M17.0711 13.9289C15.9819 12.8398 14.6855 12.0335 13.2711 11.5454C14.786 10.502 15.7812 8.75578 15.7812 6.78125C15.7812 3.59348 13.1878 1 10 1C6.81223 1 4.21875 3.59348 4.21875 6.78125C4.21875 8.75578 5.21402 10.502 6.72898 11.5454C5.31453 12.0335 4.01813 12.8398 2.92895 13.9289C1.0402 15.8177 0 18.3289 0 21H1.5625C1.5625 16.3475 5.34754 12.5625 10 12.5625C14.6525 12.5625 18.4375 16.3475 18.4375 21H20C20 18.3289 18.9598 15.8177 17.0711 13.9289ZM10 11C7.67379 11 5.78125 9.1075 5.78125 6.78125C5.78125 4.455 7.67379 2.5625 10 2.5625C12.3262 2.5625 14.2188 4.455 14.2188 6.78125C14.2188 9.1075 12.3262 11 10 11Z" fill="#FA5C98"/>
</g>
<path d="M40.5 0V21.5" stroke="#D8D8D8"/>
<defs>
<clipPath id="clip0_1_330">
<rect width="20" height="20" fill="white" transform="translate(0 1)"/>
</clipPath>
</defs>
</svg>
