<svg width="41" height="22" viewBox="0 0 41 22" fill="none" xmlns="http://www.w3.org/2000/svg">
<path d="M18.2422 3.96875H1.75781C0.790547 3.96875 0 4.75582 0 5.72656V16.2734C0 17.2445 0.791055 18.0312 1.75781 18.0312H18.2422C19.2095 18.0312 20 17.2442 20 16.2734V5.72656C20 4.75559 19.2091 3.96875 18.2422 3.96875ZM17.9723 5.14062C17.4039 5.71082 10.7283 12.4082 10.4541 12.6834C10.225 12.9131 9.77512 12.9133 9.54594 12.6834L2.02773 5.14062H17.9723ZM1.17188 16.058V5.94199L6.21348 11L1.17188 16.058ZM2.02773 16.8594L7.04078 11.83L8.71598 13.5107C9.40246 14.1994 10.5978 14.1991 11.2841 13.5107L12.9593 11.83L17.9723 16.8594H2.02773ZM18.8281 16.058L13.7865 11L18.8281 5.94199V16.058Z" fill="#FA5C98"/>
<path d="M40.5 0V21.5" stroke="#D8D8D8"/>
</svg>
