<svg width="30" height="30" viewBox="0 0 30 30" fill="none" xmlns="http://www.w3.org/2000/svg">
<circle cx="15" cy="15" r="15" fill="white" fill-opacity="0.21"/>
<circle cx="15" cy="15" r="14.5" stroke="white" stroke-opacity="0.33"/>
<path d="M15 12C14.2044 12 13.4413 12.3161 12.8787 12.8787C12.3161 13.4413 12 14.2044 12 15C12 15.7956 12.3161 16.5587 12.8787 17.1213C13.4413 17.6839 14.2044 18 15 18C15.7956 18 16.5587 17.6839 17.1213 17.1213C17.6839 16.5587 18 15.7956 18 15C18 14.2044 17.6839 13.4413 17.1213 12.8787C16.5587 12.3161 15.7956 12 15 12Z" fill="white"/>
<path fill-rule="evenodd" clip-rule="evenodd" d="M11.8 7C10.527 7 9.30606 7.50571 8.40589 8.40589C7.50571 9.30606 7 10.527 7 11.8L7 18.2C7 19.473 7.50571 20.6939 8.40589 21.5941C9.30606 22.4943 10.527 23 11.8 23H18.2C19.473 23 20.6939 22.4943 21.5941 21.5941C22.4943 20.6939 23 19.473 23 18.2V11.8C23 10.527 22.4943 9.30606 21.5941 8.40589C20.6939 7.50571 19.473 7 18.2 7H11.8ZM11.2667 15C11.2667 14.0099 11.66 13.0603 12.3601 12.3601C13.0603 11.66 14.0099 11.2667 15 11.2667C15.9901 11.2667 16.9397 11.66 17.6399 12.3601C18.34 13.0603 18.7333 14.0099 18.7333 15C18.7333 15.9901 18.34 16.9397 17.6399 17.6399C16.9397 18.34 15.9901 18.7333 15 18.7333C14.0099 18.7333 13.0603 18.34 12.3601 17.6399C11.66 16.9397 11.2667 15.9901 11.2667 15ZM18.7333 11.2667H19.8V10.2H18.7333V11.2667Z" fill="white"/>
</svg>
