<svg width="178" height="46" viewBox="0 0 178 46" fill="none" xmlns="http://www.w3.org/2000/svg">
<path d="M22.1958 37.7292C22.4966 37.8523 22.7062 38.1439 22.7062 38.4857C22.7062 38.9369 22.3416 39.3014 21.8905 39.3014H15.0274C15.1869 43.4484 15.1869 44.7244 15.1869 44.7426C15.1869 45.1938 14.8224 45.5584 14.3712 45.5584C13.92 45.5584 13.5555 45.1938 13.5555 44.7426C13.5555 44.7244 13.5555 43.3846 13.396 39.3014L13.3185 37.6654L13.3048 37.4558C13.2638 36.8041 13.2274 36.1342 13.2 35.5145C12.9448 30.5609 12.8628 28.9431 7.016 28.1319C5.02453 27.8539 3.41131 27.1293 2.24013 26.1085C1.3925 25.3703 0.772733 24.4725 0.399048 23.4791C0.029921 22.4856 -0.0885641 21.4056 0.0663782 20.2891C0.280563 18.7351 1.02337 17.1219 2.34038 15.6089C3.52068 14.2555 5.15213 12.8108 6.60585 11.5303C8.23731 10.0902 9.62723 8.86437 9.6728 8.50891C9.70014 8.30384 9.60445 8.0851 9.45862 7.92104C9.3857 7.83901 9.30823 7.77521 9.23532 7.74331L9.22164 7.7342C8.86619 8.32207 8.54263 8.76411 8.07781 9.06944L8.02312 9.1059C7.49905 9.42945 6.88384 9.53882 6.00887 9.43401C5.34809 9.35654 4.48223 9.40211 3.73942 9.71655C3.24269 9.92618 2.80521 10.2543 2.55457 10.751C2.42241 11.0609 2.10341 11.266 1.74796 11.2386C1.2968 11.2067 0.959575 10.8148 0.991474 10.3682C0.991474 10.3591 1.17832 6.7772 3.24269 5.33259C3.61638 2.78972 5.0382 1.38612 6.76991 0.862051C8.04591 0.479253 9.4814 0.602295 10.7711 1.11725C12.0516 1.63221 13.2046 2.53907 13.92 3.73304C15.0138 5.55134 15.1095 7.9894 13.1727 10.6416C12.0106 12.2275 10.4794 13.622 9.06215 14.9026C6.83827 16.9214 4.94706 18.6348 5.79469 20.002C6.80637 21.638 9.52242 20.0157 12.8127 18.0515C14.9135 16.7938 17.2285 15.4175 19.6119 14.579C25.003 12.6924 30.5444 13.54 34.3177 24.3313C34.4636 24.7551 34.2403 25.2199 33.8165 25.3657C33.3926 25.5116 32.9278 25.2883 32.782 24.8644C29.4462 15.3218 24.7204 14.5152 20.1496 16.1102C17.9212 16.8895 15.6837 18.2247 13.6512 19.4415C10.1878 21.5104 7.23929 23.2694 5.30252 21.8476C5.46202 22.1666 5.70354 22.4264 6.00887 22.636C6.6013 23.0325 7.41702 23.2603 8.32845 23.356C10.2014 23.552 12.3934 23.1874 13.8881 22.5996C14.9408 22.1849 15.875 21.7793 16.7728 21.3919C18.4908 20.6491 20.0767 19.961 21.5532 19.5736C25.8187 18.4434 29.0315 19.5918 31.2235 27.8585C31.2235 27.8585 27.5595 26.3455 26.3519 26.1085C24.7888 25.8078 23.1437 26.2863 21.7583 27.0336C20.5962 27.658 19.7942 28.5238 19.3111 29.499C18.8828 30.3603 18.705 31.3173 18.746 32.2698C18.7871 33.2313 19.0559 34.1974 19.5253 35.0633C20.1177 36.1616 21.0292 37.1094 22.2095 37.7064L22.1958 37.7292Z" fill="#FA5C98"/>
<path d="M14.945 37.67H19.4019C18.8732 37.1277 18.4266 36.517 18.0757 35.8608C17.4924 34.7807 17.1598 33.5731 17.1051 32.3655C17.055 31.1441 17.2874 29.9183 17.8388 28.8018C18.4631 27.5349 19.493 26.4184 20.9741 25.6209C22.6465 24.7186 24.6654 24.149 26.6477 24.5318C27.3313 24.6639 28.0057 24.9054 28.6574 25.2882C26.9257 21.0319 24.7155 20.444 21.9584 21.1731C20.5867 21.5377 19.0601 22.1939 17.4104 22.9094C16.4489 23.3241 15.4417 23.7616 14.4756 24.1398C12.7804 24.8052 10.2922 25.2199 8.15944 24.9966C6.99737 24.8735 5.91733 24.5637 5.09249 24.0077C4.18562 23.3925 3.57952 22.5084 3.47471 21.2871C3.40635 20.4759 3.57041 19.5189 4.03524 18.407C4.49551 16.8621 6.14063 15.3674 7.96804 13.7131C9.3215 12.4873 10.7843 11.1611 11.8553 9.69374C13.3318 7.67038 13.2999 5.87943 12.5206 4.58065C11.992 3.70112 11.1307 3.02667 10.1646 2.63931C9.20302 2.25651 8.15488 2.16081 7.23434 2.4388C6.00847 2.80792 5.01046 3.89252 4.80995 5.91589C4.78261 6.20298 4.60488 6.43995 4.36791 6.563C3.75725 6.87288 3.35622 7.53822 3.09191 8.23091H3.11014C4.14005 7.79342 5.31579 7.72051 6.19987 7.82988C6.67837 7.88912 6.97458 7.85266 7.17054 7.73418L7.20244 7.71595C7.40751 7.57468 7.60347 7.29669 7.83588 6.90478C8.10931 6.44907 8.49211 6.20754 8.91592 6.13463C9.25315 6.07538 9.60405 6.13463 9.9276 6.28957C10.2101 6.42173 10.4699 6.62224 10.6841 6.86377C11.1125 7.35138 11.3859 8.04406 11.2902 8.75498C11.158 9.70286 9.56303 11.1156 7.6855 12.7698C6.28646 14.0048 4.71425 15.3947 3.57497 16.7026C2.47214 17.9695 1.85693 19.2865 1.68376 20.5352C1.56527 21.3828 1.65186 22.1939 1.92984 22.9322C2.20327 23.6659 2.67265 24.3358 3.31521 24.8963C4.25853 25.7166 5.5801 26.3045 7.2389 26.5369C14.4209 27.5303 14.5212 29.4854 14.8265 35.4506C14.8539 36.0248 14.8858 36.6446 14.9359 37.3737L14.9541 37.6836L14.945 37.67Z" fill="url(#paint0_linear_1_41)"/>
<path d="M47.5591 14.5393V19.6913H50.1351C50.4881 19.6913 50.8202 19.6255 51.1314 19.4938C51.4425 19.3562 51.7148 19.1707 51.9482 18.9374C52.1815 18.704 52.364 18.4317 52.4957 18.1206C52.6333 17.8034 52.7021 17.4683 52.7021 17.1153C52.7021 16.7623 52.6333 16.4302 52.4957 16.119C52.364 15.8019 52.1815 15.5266 51.9482 15.2932C51.7148 15.0599 51.4425 14.8774 51.1314 14.7457C50.8202 14.6081 50.4881 14.5393 50.1351 14.5393H47.5591ZM47.5591 24.8344H44.9831V11.9633H50.1351C50.6078 11.9633 51.0626 12.0261 51.4994 12.1518C51.9362 12.2714 52.3431 12.445 52.7201 12.6724C53.103 12.8938 53.4501 13.163 53.7612 13.4802C54.0784 13.7913 54.3477 14.1384 54.5691 14.5213C54.7964 14.9043 54.97 15.3142 55.0896 15.751C55.2153 16.1878 55.2781 16.6426 55.2781 17.1153C55.2781 17.8214 55.1435 18.4886 54.8742 19.1169C54.605 19.7392 54.237 20.2837 53.7702 20.7504C53.3035 21.2172 52.756 21.5852 52.1277 21.8544C51.5054 22.1237 50.8412 22.2583 50.1351 22.2583H47.5591V24.8344ZM59.371 24.8344H56.795V11.9633H59.371V24.8344ZM72.0626 24.8344H69.3071L64.3435 16.3613V24.8344H61.7675V11.9633H64.523L69.4866 20.4453V11.9633H72.0626V24.8344ZM77.0351 24.8344H74.4591V11.9633H77.0351V18.3988L81.8281 11.9633H84.7541L80.6882 17.3935L84.7541 24.8344H81.8281L79.0008 19.6285L77.0351 22.2583V24.8344Z" fill="#FA5C98"/>
<path d="M88.5239 24.8344H85.9479V11.9633H94.9594V14.5393H88.5239V17.1153H92.3834V19.6913H88.5239V24.8344ZM105.299 24.8344H96.2878V11.9633H98.8639V22.2583H105.299V24.8344ZM114.221 19.6913V17.1153C114.221 16.7623 114.152 16.4302 114.015 16.119C113.883 15.8019 113.701 15.5266 113.467 15.2932C113.234 15.0599 112.959 14.8774 112.641 14.7457C112.33 14.6081 111.998 14.5393 111.645 14.5393C111.292 14.5393 110.957 14.6081 110.64 14.7457C110.329 14.8774 110.056 15.0599 109.823 15.2932C109.59 15.5266 109.404 15.8019 109.267 16.119C109.135 16.4302 109.069 16.7623 109.069 17.1153V19.6913H114.221ZM116.797 24.8344H114.221V22.2583H109.069V24.8344H106.502V17.1153C106.502 16.4032 106.637 15.736 106.906 15.1137C107.175 14.4854 107.54 13.9379 108.001 13.4712C108.468 13.0045 109.012 12.6365 109.635 12.3672C110.263 12.0979 110.933 11.9633 111.645 11.9633C112.357 11.9633 113.024 12.0979 113.647 12.3672C114.275 12.6365 114.823 13.0045 115.289 13.4712C115.756 13.9379 116.124 14.4854 116.393 15.1137C116.663 15.736 116.797 16.4032 116.797 17.1153V24.8344ZM131.804 24.8344H129.237V15.6433C129.237 15.4638 129.202 15.2962 129.13 15.1407C129.064 14.9851 128.971 14.8504 128.851 14.7368C128.738 14.6171 128.603 14.5243 128.448 14.4585C128.292 14.3927 128.124 14.3598 127.945 14.3598C127.765 14.3598 127.598 14.3927 127.442 14.4585C127.287 14.5243 127.149 14.6171 127.029 14.7368C126.916 14.8504 126.826 14.9851 126.76 15.1407C126.694 15.2962 126.661 15.4638 126.661 15.6433V24.8344H124.085V15.6433C124.085 15.4638 124.053 15.2962 123.987 15.1407C123.921 14.9851 123.828 14.8504 123.708 14.7368C123.595 14.6171 123.46 14.5243 123.305 14.4585C123.149 14.3927 122.981 14.3598 122.802 14.3598C122.622 14.3598 122.455 14.3927 122.299 14.4585C122.144 14.5243 122.006 14.6171 121.886 14.7368C121.773 14.8504 121.683 14.9851 121.617 15.1407C121.551 15.2962 121.518 15.4638 121.518 15.6433V24.8344H118.942V15.6433C118.942 15.1107 119.041 14.6111 119.239 14.1444C119.442 13.6716 119.717 13.2618 120.064 12.9147C120.417 12.5617 120.827 12.2864 121.294 12.0889C121.767 11.8855 122.269 11.7838 122.802 11.7838C123.281 11.7838 123.741 11.8705 124.184 12.0441C124.627 12.2116 125.025 12.4569 125.378 12.7801C125.731 12.4569 126.126 12.2116 126.563 12.0441C127.005 11.8705 127.466 11.7838 127.945 11.7838C128.477 11.7838 128.977 11.8855 129.444 12.0889C129.917 12.2864 130.326 12.5617 130.674 12.9147C131.027 13.2618 131.302 13.6716 131.499 14.1444C131.703 14.6111 131.804 15.1107 131.804 15.6433V24.8344ZM136.687 24.8344H134.111V11.9633H136.687V24.8344ZM149.379 24.8344H146.623L141.66 16.3613V24.8344H139.084V11.9633H141.839L146.803 20.4453V11.9633H149.379V24.8344ZM162.016 23.5329C161.418 24.0415 160.751 24.4334 160.015 24.7087C159.279 24.978 158.513 25.1126 157.717 25.1126C157.107 25.1126 156.517 25.0318 155.949 24.8703C155.386 24.7147 154.86 24.4933 154.369 24.2061C153.879 23.9129 153.43 23.5658 153.023 23.1649C152.616 22.758 152.269 22.3092 151.982 21.8185C151.694 21.3219 151.47 20.7893 151.309 20.2209C151.153 19.6524 151.075 19.063 151.075 18.4527C151.075 17.8423 151.153 17.2559 151.309 16.6934C151.47 16.131 151.694 15.6044 151.982 15.1137C152.269 14.6171 152.616 14.1683 153.023 13.7674C153.43 13.3605 153.879 13.0134 154.369 12.7262C154.86 12.439 155.386 12.2176 155.949 12.062C156.517 11.9004 157.107 11.8197 157.717 11.8197C158.513 11.8197 159.279 11.9573 160.015 12.2325C160.751 12.5018 161.418 12.8908 162.016 13.3994L160.67 15.6433C160.281 15.2484 159.832 14.9402 159.324 14.7188C158.815 14.4914 158.28 14.3777 157.717 14.3777C157.155 14.3777 156.625 14.4854 156.128 14.7008C155.638 14.9163 155.207 15.2095 154.836 15.5805C154.465 15.9455 154.172 16.3763 153.956 16.873C153.741 17.3636 153.633 17.8902 153.633 18.4527C153.633 19.0211 153.741 19.5537 153.956 20.0503C154.172 20.547 154.465 20.9808 154.836 21.3518C155.207 21.7228 155.638 22.016 156.128 22.2314C156.625 22.4468 157.155 22.5545 157.717 22.5545C158.04 22.5545 158.354 22.5156 158.66 22.4379C158.965 22.3601 159.255 22.2524 159.53 22.1147V18.4527H162.016V23.5329ZM176.611 18.4527C176.611 19.063 176.53 19.6524 176.369 20.2209C176.213 20.7833 175.992 21.3129 175.704 21.8096C175.417 22.3002 175.07 22.749 174.663 23.1559C174.256 23.5628 173.807 23.9129 173.317 24.2061C172.826 24.4933 172.297 24.7147 171.728 24.8703C171.16 25.0318 170.57 25.1126 169.96 25.1126C169.35 25.1126 168.76 25.0318 168.192 24.8703C167.629 24.7147 167.1 24.4933 166.603 24.2061C166.112 23.9129 165.664 23.5628 165.257 23.1559C164.85 22.749 164.5 22.3002 164.207 21.8096C163.919 21.3129 163.695 20.7833 163.533 20.2209C163.378 19.6524 163.3 19.063 163.3 18.4527C163.3 17.8423 163.378 17.2529 163.533 16.6845C163.695 16.116 163.919 15.5864 164.207 15.0958C164.5 14.6051 164.85 14.1563 165.257 13.7494C165.664 13.3425 166.112 12.9955 166.603 12.7083C167.1 12.421 167.629 12.1996 168.192 12.0441C168.76 11.8825 169.35 11.8017 169.96 11.8017C170.57 11.8017 171.16 11.8825 171.728 12.0441C172.297 12.1996 172.826 12.421 173.317 12.7083C173.807 12.9955 174.256 13.3425 174.663 13.7494C175.07 14.1563 175.417 14.6051 175.704 15.0958C175.992 15.5864 176.213 16.116 176.369 16.6845C176.53 17.2529 176.611 17.8423 176.611 18.4527ZM174.053 18.4527C174.053 17.8902 173.945 17.3606 173.73 16.864C173.514 16.3613 173.221 15.9275 172.85 15.5625C172.485 15.1915 172.051 14.8983 171.549 14.6829C171.052 14.4675 170.522 14.3598 169.96 14.3598C169.391 14.3598 168.859 14.4675 168.362 14.6829C167.866 14.8983 167.432 15.1915 167.061 15.5625C166.69 15.9275 166.397 16.3613 166.181 16.864C165.966 17.3606 165.858 17.8902 165.858 18.4527C165.858 19.0151 165.966 19.5447 166.181 20.0414C166.397 20.532 166.69 20.9629 167.061 21.3338C167.432 21.7048 167.866 21.998 168.362 22.2135C168.859 22.4289 169.391 22.5366 169.96 22.5366C170.522 22.5366 171.052 22.4289 171.549 22.2135C172.051 21.998 172.485 21.7048 172.85 21.3338C173.221 20.9629 173.514 20.532 173.73 20.0414C173.945 19.5447 174.053 19.0151 174.053 18.4527Z" fill="#301F4A"/>
<path d="M47.1022 38.8344H45.8762V33.9173H44.0285V32.6869H48.9456V33.9173H47.1022V38.8344ZM54.2559 36.3779V35.1476C54.2559 34.979 54.223 34.8204 54.1573 34.6718C54.0944 34.5203 54.0073 34.3888 53.8958 34.2774C53.7843 34.1659 53.6529 34.0787 53.5014 34.0159C53.3528 33.9501 53.1942 33.9173 53.0255 33.9173C52.8569 33.9173 52.6969 33.9501 52.5454 34.0159C52.3968 34.0787 52.2668 34.1659 52.1553 34.2774C52.0438 34.3888 51.9552 34.5203 51.8895 34.6718C51.8266 34.8204 51.7952 34.979 51.7952 35.1476V36.3779H54.2559ZM55.4862 38.8344H54.2559V37.604H51.7952V38.8344H50.5691V35.1476C50.5691 34.8075 50.6334 34.4888 50.7621 34.1916C50.8907 33.8915 51.065 33.63 51.2851 33.4071C51.508 33.1842 51.7681 33.0084 52.0653 32.8798C52.3654 32.7512 52.6855 32.6869 53.0255 32.6869C53.3656 32.6869 53.6843 32.7512 53.9815 32.8798C54.2816 33.0084 54.5431 33.1842 54.766 33.4071C54.989 33.63 55.1647 33.8915 55.2933 34.1916C55.4219 34.4888 55.4862 34.8075 55.4862 35.1476V38.8344ZM62.6742 38.2127C62.3884 38.4557 62.0697 38.6429 61.7182 38.7743C61.3667 38.9029 61.0009 38.9672 60.6208 38.9672C60.3293 38.9672 60.0478 38.9287 59.7762 38.8515C59.5076 38.7772 59.2561 38.6714 59.0217 38.5343C58.7874 38.3942 58.573 38.2285 58.3787 38.037C58.1844 37.8426 58.0186 37.6283 57.8814 37.3939C57.7442 37.1567 57.6371 36.9024 57.5599 36.6309C57.4856 36.3594 57.4484 36.0779 57.4484 35.7864C57.4484 35.4948 57.4856 35.2148 57.5599 34.9461C57.6371 34.6775 57.7442 34.426 57.8814 34.1916C58.0186 33.9544 58.1844 33.7401 58.3787 33.5486C58.573 33.3542 58.7874 33.1885 59.0217 33.0513C59.2561 32.9141 59.5076 32.8084 59.7762 32.7341C60.0478 32.6569 60.3293 32.6183 60.6208 32.6183C61.0009 32.6183 61.3667 32.6841 61.7182 32.8155C62.0697 32.9441 62.3884 33.1299 62.6742 33.3728L62.0312 34.4445C61.8454 34.2559 61.6311 34.1087 61.3881 34.003C61.1452 33.8944 60.8894 33.8401 60.6208 33.8401C60.3521 33.8401 60.0992 33.8915 59.862 33.9944C59.6276 34.0973 59.4219 34.2373 59.2447 34.4145C59.0675 34.5889 58.9274 34.7946 58.8245 35.0319C58.7217 35.2662 58.6702 35.5177 58.6702 35.7864C58.6702 36.0579 58.7217 36.3122 58.8245 36.5494C58.9274 36.7866 59.0675 36.9938 59.2447 37.171C59.4219 37.3482 59.6276 37.4883 59.862 37.5911C60.0992 37.694 60.3521 37.7455 60.6208 37.7455C60.7751 37.7455 60.9251 37.7269 61.0709 37.6897C61.2167 37.6526 61.3553 37.6011 61.4867 37.5354V35.7864H62.6742V38.2127ZM69.1548 38.8344H64.8508V32.6869H66.0811V37.604H69.1548V38.8344ZM72.2574 38.8344H71.027V32.6869H72.2574V38.8344ZM79.5482 38.8344H78.2321L75.8615 34.7875V38.8344H74.6311V32.6869H75.9472L78.3179 36.738V32.6869H79.5482V38.8344ZM86.136 38.8344H81.922V32.6869H86.136V33.9173H83.1523V35.1476H85.1714V36.3779H83.1523V37.604H86.136V38.8344ZM96.808 38.2127C96.5222 38.4557 96.2036 38.6429 95.852 38.7743C95.5005 38.9029 95.1347 38.9672 94.7546 38.9672C94.4631 38.9672 94.1816 38.9287 93.9101 38.8515C93.6414 38.7772 93.3899 38.6714 93.1556 38.5343C92.9212 38.3942 92.7069 38.2285 92.5125 38.037C92.3182 37.8426 92.1524 37.6283 92.0152 37.3939C91.8781 37.1567 91.7709 36.9024 91.6937 36.6309C91.6194 36.3594 91.5823 36.0779 91.5823 35.7864C91.5823 35.4948 91.6194 35.2148 91.6937 34.9461C91.7709 34.6775 91.8781 34.426 92.0152 34.1916C92.1524 33.9544 92.3182 33.7401 92.5125 33.5486C92.7069 33.3542 92.9212 33.1885 93.1556 33.0513C93.3899 32.9141 93.6414 32.8084 93.9101 32.7341C94.1816 32.6569 94.4631 32.6183 94.7546 32.6183C95.1347 32.6183 95.5005 32.6841 95.852 32.8155C96.2036 32.9441 96.5222 33.1299 96.808 33.3728L96.165 34.4445C95.9792 34.2559 95.7649 34.1087 95.5219 34.003C95.279 33.8944 95.0232 33.8401 94.7546 33.8401C94.4859 33.8401 94.233 33.8915 93.9958 33.9944C93.7615 34.0973 93.5557 34.2373 93.3785 34.4145C93.2013 34.5889 93.0613 34.7946 92.9584 35.0319C92.8555 35.2662 92.804 35.5177 92.804 35.7864C92.804 36.0579 92.8555 36.3122 92.9584 36.5494C93.0613 36.7866 93.2013 36.9938 93.3785 37.171C93.5557 37.3482 93.7615 37.4883 93.9958 37.5911C94.233 37.694 94.4859 37.7455 94.7546 37.7455C94.9089 37.7455 95.059 37.7269 95.2047 37.6897C95.3505 37.6526 95.4891 37.6011 95.6205 37.5354V35.7864H96.808V38.2127ZM105.008 35.7864C105.008 36.0779 104.969 36.3594 104.892 36.6309C104.818 36.8995 104.712 37.1524 104.575 37.3897C104.438 37.624 104.272 37.8384 104.077 38.0327C103.883 38.227 103.669 38.3942 103.434 38.5343C103.2 38.6714 102.947 38.7772 102.676 38.8515C102.404 38.9287 102.123 38.9672 101.831 38.9672C101.54 38.9672 101.258 38.9287 100.987 38.8515C100.718 38.7772 100.465 38.6714 100.228 38.5343C99.9934 38.3942 99.7791 38.227 99.5848 38.0327C99.3904 37.8384 99.2232 37.624 99.0832 37.3897C98.946 37.1524 98.8388 36.8995 98.7617 36.6309C98.6874 36.3594 98.6502 36.0779 98.6502 35.7864C98.6502 35.4948 98.6874 35.2133 98.7617 34.9418C98.8388 34.6703 98.946 34.4174 99.0832 34.183C99.2232 33.9487 99.3904 33.7343 99.5848 33.54C99.7791 33.3457 99.9934 33.1799 100.228 33.0427C100.465 32.9055 100.718 32.7998 100.987 32.7255C101.258 32.6483 101.54 32.6097 101.831 32.6097C102.123 32.6097 102.404 32.6483 102.676 32.7255C102.947 32.7998 103.2 32.9055 103.434 33.0427C103.669 33.1799 103.883 33.3457 104.077 33.54C104.272 33.7343 104.438 33.9487 104.575 34.183C104.712 34.4174 104.818 34.6703 104.892 34.9418C104.969 35.2133 105.008 35.4948 105.008 35.7864ZM103.786 35.7864C103.786 35.5177 103.734 35.2648 103.632 35.0276C103.529 34.7875 103.389 34.5803 103.211 34.406C103.037 34.2288 102.83 34.0887 102.59 33.9858C102.353 33.883 102.1 33.8315 101.831 33.8315C101.56 33.8315 101.305 33.883 101.068 33.9858C100.831 34.0887 100.624 34.2288 100.446 34.406C100.269 34.5803 100.129 34.7875 100.026 35.0276C99.9234 35.2648 99.872 35.5177 99.872 35.7864C99.872 36.055 99.9234 36.3079 100.026 36.5451C100.129 36.7795 100.269 36.9853 100.446 37.1625C100.624 37.3396 100.831 37.4797 101.068 37.5826C101.305 37.6855 101.56 37.7369 101.831 37.7369C102.1 37.7369 102.353 37.6855 102.59 37.5826C102.83 37.4797 103.037 37.3396 103.211 37.1625C103.389 36.9853 103.529 36.7795 103.632 36.5451C103.734 36.3079 103.786 36.055 103.786 35.7864ZM111.261 38.8344H107.047V32.6869H111.261V33.9173H108.277V35.1476H110.297V36.3779H108.277V37.604H111.261V38.8344ZM112.923 34.5303C112.923 34.2759 112.972 34.0373 113.069 33.8144C113.166 33.5914 113.298 33.3971 113.463 33.2313C113.632 33.0627 113.828 32.9298 114.051 32.8327C114.274 32.7355 114.512 32.6869 114.767 32.6869H117.587V33.9173H114.767C114.681 33.9173 114.601 33.933 114.527 33.9644C114.452 33.9958 114.387 34.0401 114.329 34.0973C114.275 34.1516 114.232 34.2159 114.201 34.2902C114.169 34.3645 114.154 34.4445 114.154 34.5303C114.154 34.616 114.169 34.6975 114.201 34.7746C114.232 34.8489 114.275 34.9147 114.329 34.9718C114.387 35.0261 114.452 35.069 114.527 35.1004C114.601 35.1319 114.681 35.1476 114.767 35.1476H115.997C116.251 35.1476 116.49 35.1962 116.713 35.2934C116.939 35.3877 117.134 35.5191 117.3 35.6878C117.469 35.8535 117.6 36.0493 117.695 36.2751C117.792 36.498 117.84 36.7366 117.84 36.991C117.84 37.2453 117.792 37.484 117.695 37.7069C117.6 37.9298 117.469 38.1256 117.3 38.2942C117.134 38.46 116.939 38.5914 116.713 38.6886C116.49 38.7858 116.251 38.8344 115.997 38.8344H113.266V37.604H115.997C116.083 37.604 116.163 37.5883 116.237 37.5568C116.311 37.5254 116.376 37.4825 116.43 37.4282C116.487 37.3711 116.531 37.3053 116.563 37.231C116.594 37.1567 116.61 37.0767 116.61 36.991C116.61 36.9052 116.594 36.8252 116.563 36.7509C116.531 36.6766 116.487 36.6123 116.43 36.558C116.376 36.5008 116.311 36.4565 116.237 36.4251C116.163 36.3937 116.083 36.3779 115.997 36.3779H114.767C114.512 36.3779 114.274 36.3294 114.051 36.2322C113.828 36.135 113.632 36.0036 113.463 35.8378C113.298 35.6692 113.166 35.4734 113.069 35.2505C112.972 35.0247 112.923 34.7846 112.923 34.5303ZM124.8 38.8344H123.57V32.6869H124.8V35.1476H127.256V32.6869H128.487V38.8344H127.256V36.3779H124.8V38.8344ZM135.074 38.8344H130.86V32.6869H135.074V33.9173H132.091V35.1476H134.11V36.3779H132.091V37.604H135.074V38.8344ZM138.396 33.9173V36.3779H139.626C139.795 36.3779 139.953 36.3465 140.102 36.2836C140.25 36.2179 140.38 36.1293 140.492 36.0178C140.603 35.9064 140.691 35.7763 140.753 35.6277C140.819 35.4763 140.852 35.3162 140.852 35.1476C140.852 34.979 140.819 34.8204 140.753 34.6718C140.691 34.5203 140.603 34.3888 140.492 34.2774C140.38 34.1659 140.25 34.0787 140.102 34.0159C139.953 33.9501 139.795 33.9173 139.626 33.9173H138.396ZM138.396 38.8344H137.165V32.6869H139.626C139.852 32.6869 140.069 32.7169 140.278 32.7769C140.486 32.8341 140.681 32.917 140.861 33.0256C141.043 33.1313 141.209 33.2599 141.358 33.4114C141.509 33.56 141.638 33.7258 141.744 33.9087C141.852 34.0916 141.935 34.2874 141.992 34.496C142.052 34.7046 142.082 34.9218 142.082 35.1476C142.082 35.3591 142.055 35.5649 142.001 35.7649C141.949 35.965 141.874 36.155 141.774 36.3351C141.677 36.5151 141.556 36.6809 141.414 36.8324C141.271 36.9838 141.111 37.1153 140.933 37.2268L141.615 38.8344H140.308L139.772 37.5954L138.396 37.604V38.8344ZM148.336 38.8344H144.122V32.6869H148.336V33.9173H145.352V35.1476H147.371V36.3779H145.352V37.604H148.336V38.8344Z" fill="#FA5C98"/>
<defs>
<linearGradient id="paint0_linear_1_41" x1="1.62452" y1="19.9746" x2="28.6528" y2="19.9746" gradientUnits="userSpaceOnUse">
<stop stop-color="#DC8064"/>
<stop offset="0.13" stop-color="#E98C70"/>
<stop offset="0.26" stop-color="#FB9E82"/>
<stop offset="0.45" stop-color="#FDBB9F"/>
<stop offset="0.57" stop-color="#FFCAAE"/>
<stop offset="0.68" stop-color="#F8AD92"/>
<stop offset="0.81" stop-color="#F19176"/>
</linearGradient>
</defs>
</svg>
