<svg width="97" height="128" viewBox="0 0 97 128" fill="none" xmlns="http://www.w3.org/2000/svg">
<path d="M62.7374 105.043C63.5823 105.389 64.1712 106.208 64.1712 107.168C64.1712 108.436 63.147 109.46 61.8796 109.46H42.5999C43.0479 121.109 43.0479 124.694 43.0479 124.745C43.0479 126.013 42.0238 127.037 40.7564 127.037C39.489 127.037 38.4648 126.013 38.4648 124.745C38.4648 124.694 38.4648 120.93 38.0168 109.46L37.7991 104.864L37.7607 104.275C37.6455 102.444 37.5431 100.562 37.4663 98.8213C36.7494 84.9055 36.5189 80.3608 20.094 78.0821C14.4995 77.3012 9.96764 75.2656 6.67753 72.398C4.29637 70.3241 2.5553 67.8021 1.50554 65.0113C0.468576 62.2204 0.135725 59.1864 0.570992 56.0499C1.17268 51.6844 3.2594 47.1525 6.95917 42.9023C10.2749 39.1001 14.858 35.0419 18.9418 31.4445C23.5249 27.3991 27.4295 23.9553 27.5575 22.9568C27.6344 22.3807 27.3655 21.7662 26.9559 21.3053C26.751 21.0749 26.5334 20.8957 26.3285 20.8061L26.2901 20.7805C25.2916 22.4319 24.3827 23.6737 23.0769 24.5314L22.9232 24.6338C21.451 25.5428 19.7227 25.85 17.2648 25.5556C15.4085 25.338 12.9761 25.466 10.8894 26.3493C9.49396 26.9382 8.26497 27.8599 7.56087 29.2554C7.18961 30.1259 6.29347 30.702 5.29492 30.6252C4.02752 30.5356 3.08018 29.4346 3.16979 28.18C3.16979 28.1544 3.69467 18.092 9.49396 14.0338C10.5437 6.89032 14.5379 2.94731 19.4027 1.47509C22.9872 0.39972 27.0199 0.745373 30.6428 2.192C34.2402 3.63862 37.4791 6.18621 39.489 9.54033C42.5615 14.6483 42.8303 21.4974 37.3895 28.9481C34.125 33.4032 29.8235 37.3206 25.8421 40.918C19.5947 46.5892 14.2819 51.4028 16.6631 55.2434C19.5051 59.8393 27.1351 55.2818 36.3781 49.7641C42.2798 46.2308 48.7832 42.3646 55.4786 40.009C70.6234 34.709 86.1906 37.0902 96.7906 67.4052C97.2003 68.5958 96.573 69.9016 95.3824 70.3113C94.1918 70.7209 92.886 70.0936 92.4763 68.9031C83.1053 42.0957 69.8296 39.8298 56.9893 44.3105C50.7291 46.4996 44.4433 50.2506 38.7337 53.6687C29.0042 59.4808 20.7213 64.4224 15.2805 60.4282C15.7285 61.3243 16.407 62.054 17.2648 62.6429C18.929 63.7567 21.2206 64.3968 23.781 64.6656C29.0426 65.2161 35.2003 64.1919 39.3994 62.5405C42.3566 61.3755 44.981 60.2361 47.503 59.148C52.3293 57.0612 56.7844 55.1281 60.9323 54.04C72.9149 50.8651 81.9403 54.0912 88.0981 77.314C88.0981 77.314 77.8053 73.0637 74.4128 72.398C70.0217 71.5531 65.4002 72.8973 61.5084 74.9968C58.2439 76.7507 55.9907 79.183 54.6337 81.9227C53.4303 84.3422 52.931 87.0307 53.0463 89.7063C53.1615 92.4075 53.9168 95.1215 55.2354 97.5539C56.8997 100.639 59.46 103.302 62.7758 104.979L62.7374 105.043Z" fill="white"/>
</svg>
