<svg width="30" height="30" viewBox="0 0 30 30" fill="none" xmlns="http://www.w3.org/2000/svg">
<circle cx="15" cy="15" r="15" fill="white" fill-opacity="0.28"/>
<circle cx="15" cy="15" r="14.5" stroke="white" stroke-opacity="0.33"/>
<path d="M24 9.77734C23.3248 10.083 22.6104 10.2843 21.8794 10.375C22.6476 9.9064 23.2254 9.16194 23.5043 8.28126C22.7779 8.72367 21.9846 9.03409 21.1583 9.19922C20.8103 8.81935 20.3918 8.51716 19.9282 8.311C19.4647 8.10484 18.9657 7.99904 18.4616 8.00001C16.4209 8.00001 14.7694 9.69531 14.7694 11.7852C14.7679 12.0758 14.7999 12.3657 14.8646 12.6484C13.4013 12.577 11.9683 12.1881 10.6575 11.5067C9.34666 10.8254 8.18681 9.86647 7.25213 8.69141C6.92422 9.26724 6.7508 9.92424 6.75 10.5937C6.75 11.9062 7.40738 13.0664 8.4 13.7461C7.8119 13.7315 7.23585 13.5694 6.72075 13.2734V13.3203C6.72075 15.1562 7.99575 16.6836 9.68325 17.0312C9.36592 17.1193 9.03891 17.164 8.7105 17.164C8.47747 17.1645 8.24496 17.1409 8.01638 17.0937C8.4855 18.5976 9.85088 19.6914 11.4683 19.7226C10.154 20.7777 8.54048 21.3479 6.88125 21.3437C6.58673 21.3433 6.29249 21.325 6 21.289C7.68794 22.4118 9.65004 23.0056 11.6528 23C18.4538 23 22.1693 17.2304 22.1693 12.2266C22.1693 12.0625 22.1651 11.8984 22.1576 11.7383C22.8788 11.2039 23.5027 10.5399 24 9.77734Z" fill="white"/>
</svg>
