<svg width="97" height="128" viewBox="0 0 97 128" fill="none" xmlns="http://www.w3.org/2000/svg">
<path d="M62.7375 105.043C63.5824 105.389 64.1713 106.208 64.1713 107.168C64.1713 108.436 63.1471 109.46 61.8797 109.46H42.6C43.048 121.109 43.048 124.694 43.048 124.745C43.048 126.013 42.0239 127.037 40.7565 127.037C39.4891 127.037 38.4649 126.013 38.4649 124.745C38.4649 124.694 38.4649 120.93 38.0169 109.46L37.7992 104.864L37.7608 104.275C37.6456 102.444 37.5432 100.562 37.4664 98.8213C36.7495 84.9055 36.519 80.3608 20.0941 78.0821C14.4997 77.3012 9.96776 75.2656 6.67765 72.398C4.29649 70.3241 2.55542 67.8021 1.50566 65.0113C0.468698 62.2204 0.135848 59.1864 0.571114 56.0499C1.17281 51.6844 3.25953 47.1525 6.95929 42.9023C10.275 39.1001 14.8581 35.0419 18.9419 31.4445C23.525 27.3991 27.4296 23.9553 27.5577 22.9568C27.6345 22.3807 27.3656 21.7662 26.956 21.3053C26.7511 21.0749 26.5335 20.8957 26.3287 20.8061L26.2903 20.7805C25.2917 22.4319 24.3828 23.6737 23.077 24.5314L22.9234 24.6338C21.4511 25.5428 19.7229 25.85 17.2649 25.5556C15.4086 25.338 12.9762 25.466 10.8895 26.3493C9.49408 26.9382 8.2651 27.8599 7.56099 29.2554C7.18973 30.1259 6.29359 30.702 5.29504 30.6252C4.02764 30.5356 3.0803 29.4346 3.16991 28.18C3.16991 28.1544 3.69479 18.092 9.49408 14.0338C10.5438 6.89032 14.5381 2.94731 19.4028 1.47509C22.9874 0.39972 27.02 0.745373 30.6429 2.192C34.2403 3.63862 37.4792 6.18621 39.4891 9.54033C42.5616 14.6483 42.8304 21.4974 37.3896 28.9481C34.1251 33.4032 29.8236 37.3206 25.8422 40.918C19.5948 46.5892 14.282 51.4028 16.6632 55.2434C19.5052 59.8393 27.1352 55.2818 36.3782 49.7641C42.2799 46.2308 48.7833 42.3646 55.4788 40.009C70.6235 34.709 86.1907 37.0902 96.7907 67.4052C97.2004 68.5958 96.5731 69.9016 95.3825 70.3113C94.1919 70.7209 92.8861 70.0936 92.4765 68.9031C83.1054 42.0957 69.8298 39.8298 56.9894 44.3105C50.7292 46.4996 44.4435 50.2506 38.7338 53.6687C29.0043 59.4808 20.7214 64.4224 15.2806 60.4282C15.7286 61.3243 16.4071 62.054 17.2649 62.6429C18.9291 63.7567 21.2207 64.3968 23.7811 64.6656C29.0427 65.2161 35.2004 64.1919 39.3995 62.5405C42.3567 61.3755 44.9811 60.2361 47.5031 59.148C52.3295 57.0612 56.7846 55.1281 60.9324 54.04C72.915 50.8651 81.9404 54.0912 88.0982 77.314C88.0982 77.314 77.8054 73.0637 74.4129 72.398C70.0218 71.5531 65.4003 72.8973 61.5085 74.9968C58.244 76.7507 55.9908 79.183 54.6338 81.9227C53.4304 84.3422 52.9312 87.0307 53.0464 89.7063C53.1616 92.4075 53.9169 95.1215 55.2355 97.5539C56.8998 100.639 59.4602 103.302 62.7759 104.979L62.7375 105.043Z" fill="white"/>
</svg>
