<svg width="12" height="13" viewBox="0 0 12 13" fill="none" xmlns="http://www.w3.org/2000/svg">
<path d="M10.7978 10.5803C10.5273 9.90166 10.1348 9.28521 9.64205 8.7653C9.15081 8.24389 8.5689 7.82818 7.92844 7.54111C7.9227 7.53807 7.91697 7.53655 7.91123 7.53351C8.8046 6.85003 9.38537 5.73671 9.38537 4.48062C9.38537 2.39979 7.79364 0.713867 5.82908 0.713867C3.86452 0.713867 2.27279 2.39979 2.27279 4.48062C2.27279 5.73671 2.85356 6.85003 3.74693 7.53503C3.7412 7.53807 3.73546 7.53959 3.72972 7.54262C3.0873 7.82969 2.51084 8.2413 2.01611 8.76682C1.52384 9.28713 1.13135 9.90348 0.860318 10.5818C0.594058 11.246 0.450458 11.958 0.437292 12.6794C0.436909 12.6956 0.439593 12.7117 0.445187 12.7268C0.450781 12.7419 0.45917 12.7557 0.469861 12.7673C0.480552 12.7789 0.493328 12.7881 0.507437 12.7944C0.521545 12.8007 0.536701 12.8039 0.552011 12.8039H1.4124C1.4755 12.8039 1.52569 12.7508 1.52712 12.6855C1.5558 11.5129 2.00034 10.4148 2.78616 9.58244C3.59923 8.72125 4.67902 8.24737 5.82908 8.24737C6.97914 8.24737 8.05893 8.72125 8.872 9.58244C9.65782 10.4148 10.1024 11.5129 10.131 12.6855C10.1325 12.7523 10.1827 12.8039 10.2458 12.8039H11.1062C11.1215 12.8039 11.1366 12.8007 11.1507 12.7944C11.1648 12.7881 11.1776 12.7789 11.1883 12.7673C11.199 12.7557 11.2074 12.7419 11.213 12.7268C11.2186 12.7117 11.2213 12.6956 11.2209 12.6794C11.2065 11.9534 11.0646 11.2471 10.7978 10.5803ZM5.82908 7.09305C5.17088 7.09305 4.5514 6.82117 4.08535 6.32754C3.61931 5.83392 3.36262 5.17777 3.36262 4.48062C3.36262 3.78347 3.61931 3.12732 4.08535 2.6337C4.5514 2.14007 5.17088 1.86819 5.82908 1.86819C6.48728 1.86819 7.10676 2.14007 7.57281 2.6337C8.03885 3.12732 8.29554 3.78347 8.29554 4.48062C8.29554 5.17777 8.03885 5.83392 7.57281 6.32754C7.10676 6.82117 6.48728 7.09305 5.82908 7.09305Z" fill="white"/>
</svg>
