<svg width="30" height="30" viewBox="0 0 30 30" fill="none" xmlns="http://www.w3.org/2000/svg">
<circle cx="15" cy="15" r="15" fill="white" fill-opacity="0.21"/>
<circle cx="15" cy="15" r="14.5" stroke="white" stroke-opacity="0.33"/>
<path d="M15.0579 9H15.1581C16.0829 9.00347 20.7688 9.03817 22.0323 9.38749C22.4142 9.4941 22.7623 9.7019 23.0416 9.99013C23.321 10.2784 23.5219 10.6369 23.6242 11.03C23.7379 11.4695 23.8177 12.0513 23.8717 12.6517L23.883 12.772L23.9077 13.0727L23.9167 13.193C23.9899 14.2502 23.9989 15.2403 24 15.4566V15.5434C23.9989 15.7678 23.9887 16.825 23.9077 17.9261L23.8987 18.0476L23.8886 18.1679C23.8324 18.8295 23.7491 19.4865 23.6242 19.97C23.5222 20.3632 23.3214 20.722 23.042 21.0102C22.7626 21.2985 22.4144 21.5062 22.0323 21.6125C20.7272 21.9734 15.7667 21.9988 15.0793 22H14.9196C14.5719 22 13.1341 21.9931 11.6265 21.9399L11.4352 21.9329L11.3373 21.9283L11.1449 21.9202L10.9526 21.9121C9.70373 21.8554 8.51453 21.764 7.96662 21.6114C7.58465 21.5052 7.23653 21.2976 6.95712 21.0096C6.67772 20.7215 6.47686 20.363 6.37465 19.97C6.24977 19.4877 6.16651 18.8295 6.11026 18.1679L6.10126 18.0464L6.09226 17.9261C6.03673 17.1424 6.00596 16.357 6 15.5711L6 15.4289C6.00225 15.1802 6.01125 14.3208 6.072 13.3723L6.07988 13.2531L6.08326 13.193L6.09226 13.0727L6.11701 12.772L6.12826 12.6517C6.18226 12.0513 6.26214 11.4684 6.37577 11.03C6.47781 10.6368 6.6786 10.278 6.95801 9.98976C7.23742 9.70148 7.58564 9.49378 7.96775 9.38749C8.51566 9.23712 9.70486 9.14459 10.9537 9.08675L11.1449 9.07865L11.3385 9.07171L11.4352 9.06824L11.6276 9.06015C12.6983 9.02472 13.7695 9.00506 14.8408 9.00116H15.0579V9ZM13.2005 12.713V18.2859L17.8774 15.5006L13.2005 12.713Z" fill="white"/>
</svg>
